<?xml version="1.0" encoding="UTF-8" standalone="no"?>
<svg
   xmlns:dc="http://purl.org/dc/elements/1.1/"
   xmlns:cc="http://creativecommons.org/ns#"
   xmlns:rdf="http://www.w3.org/1999/02/22-rdf-syntax-ns#"
   xmlns:svg="http://www.w3.org/2000/svg"
   xmlns="http://www.w3.org/2000/svg"
   xmlns:sodipodi="http://sodipodi.sourceforge.net/DTD/sodipodi-0.dtd"
   xmlns:inkscape="http://www.inkscape.org/namespaces/inkscape"
   width="228.06734"
   height="260.78845"
   id="svg2"
   sodipodi:version="0.32"
   inkscape:version="1.0.2 (e86c8708, 2021-01-15)"
   version="1.0"
   sodipodi:docname="ellipticCurve.svg"
   inkscape:output_extension="org.inkscape.output.svg.inkscape"
   inkscape:export-filename="/Users/sshmatrix/Idee/sshmatrix/Buidl/research/ecTopology/img/ellipticCurve.png"
   inkscape:export-xdpi="1200"
   inkscape:export-ydpi="1200">
  <defs
     id="defs4">
    <inkscape:perspective
       sodipodi:type="inkscape:persp3d"
       inkscape:vp_x="0 : 536.96954 : 1"
       inkscape:vp_y="0 : 1000 : 0"
       inkscape:vp_z="744.09448 : 536.96954 : 1"
       inkscape:persp3d-origin="372.04724 : 361.57584 : 1"
       id="perspective10" />
    <inkscape:perspective
       id="perspective2390"
       inkscape:persp3d-origin="372.04724 : 361.57584 : 1"
       inkscape:vp_z="744.09448 : 536.96954 : 1"
       inkscape:vp_y="0 : 1000 : 0"
       inkscape:vp_x="0 : 536.96954 : 1"
       sodipodi:type="inkscape:persp3d" />
  </defs>
  <sodipodi:namedview
     id="base"
     pagecolor="#ffffff"
     bordercolor="#666666"
     borderopacity="1.0"
     gridtolerance="10000"
     guidetolerance="10"
     objecttolerance="10"
     inkscape:pageopacity="1"
     inkscape:pageshadow="2"
     inkscape:zoom="1.2913363"
     inkscape:cx="-5.1360333"
     inkscape:cy="66.961775"
     inkscape:document-units="px"
     inkscape:current-layer="layer1"
     showgrid="false"
     inkscape:window-width="1280"
     inkscape:window-height="891"
     inkscape:window-x="0"
     inkscape:window-y="37"
     inkscape:document-rotation="0"
     inkscape:window-maximized="0"
     fit-margin-top="10"
     fit-margin-left="10"
     fit-margin-right="10"
     fit-margin-bottom="10" />
  <metadata
     id="metadata7">
    <rdf:RDF>
      <cc:Work
         rdf:about="">
        <dc:format>image/svg+xml</dc:format>
        <dc:type
           rdf:resource="http://purl.org/dc/dcmitype/StillImage" />
        <dc:title />
      </cc:Work>
    </rdf:RDF>
  </metadata>
  <g
     inkscape:label="Layer 1"
     inkscape:groupmode="layer"
     id="layer1"
     transform="translate(94.169753,311.88974)">
    <path
       id="path3216"
       d="m -53.291753,-180.96013 h 14.22713 m 4.854285,0 h 66.701479 m 8.18037,0 H 55.50405 m 6.382486,0 h 57.332604"
       style="fill:none;fill-rule:evenodd;stroke:#c5c5c5;stroke-width:0.377953;stroke-linecap:round;stroke-linejoin:round;stroke-miterlimit:4;stroke-dasharray:1.51181, 1.51181;stroke-dashoffset:0;stroke-opacity:1"
       sodipodi:nodetypes="cccccccc" />
    <path
       style="fill:none;fill-rule:evenodd;stroke:#c5c5c5;stroke-width:0.377953;stroke-linecap:round;stroke-linejoin:round;stroke-miterlimit:4;stroke-dasharray:1.51181, 1.51181;stroke-dashoffset:0;stroke-opacity:1"
       d="M -33.311244,-78.45615 V -283.46709"
       id="path3168" />
    <path
       style="fill:none;fill-rule:evenodd;stroke:#dcdcdc;stroke-width:0.566929;stroke-linecap:round;stroke-linejoin:round;stroke-miterlimit:4;stroke-dasharray:none;stroke-opacity:0.895161"
       d="m 87.93485,-301.38974 c 0,0 -33.606525,81.88011 -46.688,81.88011 -13.08148,0 -31.54322,-16.30461 -48.791,-16.30461 -17.24778,0 -24.95464,27.48399 -25.41463,54.79587 -0.45998,27.31188 5.27618,54.45213 25.41463,54.45213 20.13845,0 34.29531,-16.30557 48.791,-16.30557 14.49569,0 46.68817,81.27052 46.68817,81.27052"
       id="path3255-8"
       sodipodi:nodetypes="czzzzzz" />
    <path
       style="fill:none;fill-rule:evenodd;stroke:#dcdcdc;stroke-width:0.566929;stroke-linecap:round;stroke-linejoin:round;stroke-miterlimit:4;stroke-dasharray:none;stroke-opacity:0.895161"
       d="m 87.93485,-301.38974 c 0,0 -33.60653,97.88011 -46.688,97.88011 -13.08148,0 -31.5432201,-32.30461 -48.7910001,-32.30461 -17.2477809,0 -24.9546409,27.48399 -25.4146309,54.79587 -0.45998,27.31188 5.27618,54.45213 25.4146309,54.45213 20.1384491,0 34.2953101,-32.30557 48.7910001,-32.30557 14.49569,0 46.68817,97.27052 46.68817,97.27052"
       id="path3255-8-6"
       sodipodi:nodetypes="czzzzzz" />
    <path
       style="fill:none;fill-rule:evenodd;stroke:#dcdcdc;stroke-width:0.566929;stroke-linecap:round;stroke-linejoin:round;stroke-miterlimit:4;stroke-dasharray:none;stroke-opacity:0.91129035"
       d="m 87.93485,-301.38974 c 0,0 -0.0096,-0.003 -0.85938,2.52964 -16.708388,49.80402 -39.014065,113.60763 -45.828624,113.84173 m 0,0 c -5.547761,0.35216 -31.54322,-50.79587 -48.791,-50.79587 -17.24777,0 -24.95463,27.48399 -25.41462,54.79587 -0.45999,27.31188 5.27617,54.45213 25.41462,54.45213 20.13846,0 42.542232,-51.52558 48.791,-50.45213 m 0,0 c 8.709222,1.10001 34.997481,78.493454 46.688174,115.417085"
       id="path3255-5"
       sodipodi:nodetypes="cscczzzccc" />
    <g
       id="g889"
       transform="matrix(1.0015011,0,0,0.30638268,-2.0498181,-126.07019)" />
    <path
       style="fill:none;fill-rule:evenodd;stroke:#dcdcdc;stroke-width:0.56692913;stroke-linecap:round;stroke-linejoin:round;stroke-opacity:0.90980393;stroke-miterlimit:4;stroke-dasharray:none"
       d="m 87.93485,-301.38974 c 0,0 -33.606525,105.88011 -46.688,105.88011 -13.081475,0 -31.543222,-40.30461 -48.791,-40.30461 -17.247778,0 -24.954639,27.48399 -25.414627,54.79587 -0.459988,27.31188 5.276174,54.45213 25.414627,54.45213 20.138452,0 34.29531,-40.30557 48.791,-40.30557 14.49569,0 46.68817,105.27052 46.68817,105.27052"
       id="path3255"
       sodipodi:nodetypes="czzzzzz" />
    <text
       xml:space="preserve"
       style="font-size:6.66667px;line-height:1.25;font-family:Palatino;-inkscape-font-specification:Palatino;font-variant-ligatures:none;text-align:center;letter-spacing:-1.39px;text-anchor:middle;fill:#808080;fill-opacity:1;stroke:#000000;stroke-width:0.1;stroke-linecap:round;stroke-linejoin:round;stroke-miterlimit:4;stroke-dasharray:none;stroke-opacity:0"
       x="118.00147"
       y="-174.22664"
       id="text1805"><tspan
         sodipodi:role="line"
         id="tspan1803"
         x="117.30647"
         y="-174.22664"
         style="font-style:normal;font-variant:normal;font-weight:normal;font-stretch:normal;font-size:6.66667px;font-family:'SF Mono';-inkscape-font-specification:'SF Mono';fill:#808080;fill-opacity:1;stroke:#000000;stroke-width:0.1;stroke-linecap:round;stroke-linejoin:round;stroke-miterlimit:4;stroke-dasharray:none;stroke-opacity:0">θ</tspan></text>
    <text
       xml:space="preserve"
       style="font-size:6.66667px;line-height:1.25;font-family:Palatino;-inkscape-font-specification:Palatino;font-variant-ligatures:none;text-align:center;letter-spacing:-1.39px;text-anchor:middle;fill:#808080;fill-opacity:1;stroke:#000000;stroke-width:0.1;stroke-linecap:round;stroke-linejoin:round;stroke-miterlimit:4;stroke-dasharray:none;stroke-opacity:0"
       x="-29.278648"
       y="-279.58157"
       id="text1805-3"><tspan
         sodipodi:role="line"
         id="tspan1803-7"
         x="-29.973648"
         y="-279.58157"
         style="font-style:normal;font-variant:normal;font-weight:normal;font-stretch:normal;font-size:6.66667px;font-family:'SF Mono';-inkscape-font-specification:'SF Mono';fill:#808080;fill-opacity:1;stroke:#000000;stroke-width:0.1;stroke-linecap:round;stroke-linejoin:round;stroke-miterlimit:4;stroke-dasharray:none;stroke-opacity:0">E</tspan></text>
    <text
       xml:space="preserve"
       style="font-style:normal;font-variant:normal;font-weight:normal;font-stretch:normal;font-size:6.66667px;line-height:1.25;font-family:'SF Mono';-inkscape-font-specification:'SF Mono';font-variant-ligatures:none;text-align:center;letter-spacing:-1.39px;text-anchor:middle"
       x="-36.452141"
       y="-178.61313"
       id="text855"><tspan
         sodipodi:role="line"
         id="tspan853"
         x="-37.147141"
         y="-178.61313">0</tspan></text>
    <path
       style="fill:none;fill-rule:evenodd;stroke:#dcdcdc;stroke-width:0.566929;stroke-linecap:round;stroke-linejoin:round;stroke-miterlimit:4;stroke-dasharray:none;stroke-opacity:0.927419"
       d="m 87.93485,-301.38974 c 0,0 -17.78327,110.54212 -18.688,120.37137 m -48,0 c -0.880717,-12.13308 -11.54322,-54.79587 -28.7909997,-54.79587 -17.2477703,0 -24.9546303,27.48399 -25.4146203,54.79587 -0.45999,27.31188 5.27617,54.45213 25.4146203,54.45213 20.1384597,0 28.5517447,-43.54711 28.7909997,-54.45213 m 48,0 c 0.98111,11.87133 18.68817,119.417082 18.68817,119.417082"
       id="path3255-5-1-6"
       sodipodi:nodetypes="ccczzzccz" />
    <path
       style="fill:none;fill-rule:evenodd;stroke:#000000;stroke-width:0.566929;stroke-linecap:round;stroke-linejoin:round;stroke-miterlimit:4;stroke-dasharray:none;stroke-opacity:1"
       d="m 87.93485,-301.38974 c 0,0 -33.78327,110.54212 -34.688,120.37137 m -60.791,-54.79587 c -17.24777,0 -24.95463,27.48399 -25.41462,54.79587 -0.45999,27.31188 5.27617,54.45213 25.41462,54.45213 20.13846,0 39.012729,-46.29501 38.791,-54.45213 -0.20388,-8.86901 -21.54322,-54.79587 -38.791,-54.79587 z m 60.791,54.79587 c 0.98111,11.87133 34.68817,119.417085 34.68817,119.417085"
       id="path3255-5-1"
       sodipodi:nodetypes="cczzzczcz" />
    <text
       xml:space="preserve"
       style="font-style:normal;font-variant:normal;font-weight:normal;font-stretch:normal;font-size:6.66667px;line-height:1.25;font-family:'SF Mono';-inkscape-font-specification:'SF Mono';font-variant-ligatures:none;text-align:center;letter-spacing:-1.39px;text-anchor:middle"
       x="58.410225"
       y="-178.6115"
       id="text855-1-0"><tspan
         sodipodi:role="line"
         id="tspan853-3-4"
         x="57.715225"
         y="-178.6115">1</tspan></text>
    <text
       xml:space="preserve"
       style="font-style:normal;font-variant:normal;font-weight:normal;font-stretch:normal;font-size:6.66667px;line-height:1.25;font-family:'SF Mono';-inkscape-font-specification:'SF Mono';font-variant-ligatures:none;text-align:center;letter-spacing:-1.39px;text-anchor:middle"
       x="36.272205"
       y="-178.06845"
       id="text855-4"><tspan
         sodipodi:role="line"
         id="tspan853-8"
         x="36.223679"
         y="-178.06845">k<tspan
   style="font-size:4px"
   id="tspan1528"> </tspan><tspan
   style="font-size:2.66667px"
   id="tspan1526"> </tspan><tspan
   style="font-size:1.33333px"
   id="tspan1524"> </tspan><tspan
   style="font-size:65%;baseline-shift:super"
   id="tspan1522">2 </tspan></tspan></text>
  </g>
</svg>
